<?xml version="1.0" encoding="UTF-8" standalone="no"?>
<!-- Creator: CorelDRAW X5 -->

<svg
   xml:space="preserve"
   width="2048px"
   height="2048px"
   style="shape-rendering:geometricPrecision; text-rendering:geometricPrecision; image-rendering:optimizeQuality; fill-rule:evenodd; clip-rule:evenodd"
   viewBox="0 0 2048 2048"
   version="1.1"
   id="svg15"
   sodipodi:docname="logo.svg"
   inkscape:version="1.1.1 (c3084ef, 2021-09-22)"
   xmlns:inkscape="http://www.inkscape.org/namespaces/inkscape"
   xmlns:sodipodi="http://sodipodi.sourceforge.net/DTD/sodipodi-0.dtd"
   xmlns="http://www.w3.org/2000/svg"
   xmlns:svg="http://www.w3.org/2000/svg"><sodipodi:namedview
   id="namedview17"
   pagecolor="#ffffff"
   bordercolor="#666666"
   borderopacity="1.0"
   inkscape:pageshadow="2"
   inkscape:pageopacity="0.0"
   inkscape:pagecheckerboard="0"
   showgrid="false"
   inkscape:zoom="0.30517578"
   inkscape:cx="1024"
   inkscape:cy="1024"
   inkscape:window-width="1316"
   inkscape:window-height="969"
   inkscape:window-x="122"
   inkscape:window-y="51"
   inkscape:window-maximized="0"
   inkscape:current-layer="Layer_x0020_1" />
 <defs
   id="defs4">
  <style
   type="text/css"
   id="style2">
   <![CDATA[
    .fil0 {fill:#FFCA28}
    .fil1 {fill:#FFFFFE;fill-rule:nonzero}
   ]]>
  </style>
 </defs>
 <g
   id="Layer_x0020_1"
   inkscape:label="Layer 1">
  <metadata
   id="CorelCorpID_0Corel-Layer" />
  <rect
   class="fil0"
   width="2048"
   height="2048"
   rx="256"
   ry="256"
   id="rect7"
   style="fill:#800080" />
  <g
   id="_617655424"
   transform="translate(-22.9376,-72.0896)">
   <path
   class="fil1"
   d="m 1601,765 h 28 l 5,28 158,688 v 182 H 256 v -189 l 159,-682 5,-28 h 28 206 c -17,64 -28,130 -31,192 -1,28 -4,58 15,81 13,15 31,22 50,22 46,0 65,-33 67,-74 0,-8 0,-16 1,-24 4,-63 17,-132 37,-197 h 461 c 24,75 38,155 38,228 0,37 30,67 67,67 37,0 67,-30 67,-67 0,-74 -11,-152 -32,-228 h 209 z"
   id="path9" />
   <path
   class="fil1"
   d="m 688,1032 c -39,0 -34,-41 -32,-67 6,-102 35,-232 88,-340 58,-120 146,-215 261,-225 16,-1 30,-1 46,1 90,12 169,85 229,185 69,116 112,272 112,412 0,18 -15,33 -33,33 -18,0 -33,-15 -33,-33 0,-128 -40,-271 -103,-378 -48,-80 -108,-139 -172,-152 -14,-3 -30,-3 -44,-2 -86,9 -154,88 -202,187 -48,99 -76,218 -81,312 -1,25 5,66 -34,66 z"
   id="path11" />
  </g>
 </g>
</svg>
